<svg id="Layer_1" data-name="Layer 1" xmlns="http://www.w3.org/2000/svg" viewBox="0 0 200 200"><defs><style>.cls-1{fill:#fff;stroke:#1d1d1b;stroke-miterlimit:10;}.cls-2{fill:#230a70;}</style></defs><rect class="cls-1" x="-323.24" y="-225.67" width="1254.41" height="578.15"/><circle class="cls-2" cx="100" cy="100" r="100"/><path class="cls-1" d="M151.08,142.16a2.52,2.52,0,0,1-2.51-2.51v-9.82l-1.36.52a8.59,8.59,0,0,1-3.09.57,8.18,8.18,0,0,1-1.45-.12,10.64,10.64,0,0,1-6.16-3.74l-1.76-2v8.83a7.32,7.32,0,0,1-7.32,7.32h-18l.19-.34-2,.26a10.39,10.39,0,0,1-1.26.08h-23a9.71,9.71,0,0,1-5.44-1.66l-.51-.34-.54.3a14.64,14.64,0,0,1-7,2,12.07,12.07,0,0,1-4.55-1.12l-.14-.05a6,6,0,0,0-1.95-.59,6,6,0,0,0-1.95.59l-.11,0a12,12,0,0,1-4.59,1.13c-6.75,0-15.76-6.53-19.14-18.63-3.44-12.3-.15-23.94,8-28.3a15.45,15.45,0,0,1,7.46-1.91,26.32,26.32,0,0,1,6.2.93l.24.05,1.24.21-.05-1.25c0-.89-.13-1.74-.22-2.53l-.09-.83-.83-.06a13.76,13.76,0,0,1-8.92-3.69c-4.53-4.39-4.15-10.71-4.13-11a2.51,2.51,0,0,1,1.8-2.27,11,11,0,0,1,3.2-.45,11.7,11.7,0,0,1,6.84,2.15,16.08,16.08,0,0,1,5.5,8l.53,1.52,1.12-1.15a12.84,12.84,0,0,1,9.06-3.65h.16a2.51,2.51,0,0,1,0,5c-4.9.18-7.61,3-8.56,8.85l-.22,1.42,1.59-.32a26.15,26.15,0,0,1,6.2-.93,15.56,15.56,0,0,1,12.26,6c1.18,1.31,6.7,8.25,3.77,21.82l-.26,1.21h17.1a9.76,9.76,0,0,1,9.75,9.76,9.54,9.54,0,0,1-.54,3.19l-.48,1.33h10.48a3.86,3.86,0,0,0,3.85-3.85v-51a3.86,3.86,0,0,0-3.85-3.85H92a4.68,4.68,0,0,0-4.13,3.65l0,.1V89.4a2.51,2.51,0,1,1-5,0V80.13a2.55,2.55,0,0,1,.08-.61l0-.09v-.09a7.34,7.34,0,0,1,7.31-6.8h2.86v-4H90.2A3.61,3.61,0,0,1,86.59,65V55.66a7.33,7.33,0,0,1,7.33-7.32H123.7A7.33,7.33,0,0,1,131,55.66V65a3.6,3.6,0,0,1-3.6,3.6h-2v4h2a7.32,7.32,0,0,1,7.32,7.32v1.71l.77.18c.75.18,2.75.69,5.16,1.52l1.23.42.1-1.29c0-.3,0-.53.07-.77.69-5.43,6.33-12.73,7-13.54a2.46,2.46,0,0,1,1.94-1h.11a2.49,2.49,0,0,1,1.87.92c.62.77,6.16,7.73,7,13.53,0,.27.07.55.08.81l.05,1.39,1.31-.5.33-.11a59.62,59.62,0,0,1,6.15-1.71,2.47,2.47,0,0,1,2.21.59,2.5,2.5,0,0,1,.81,2.13,46,46,0,0,1-2.34,10l-.38,1,1,.32a2.32,2.32,0,0,1,.89.53,2.48,2.48,0,0,1,.82,2.13,46,46,0,0,1-2.34,10l-.38,1,1,.32a2.45,2.45,0,0,1,.89.53,2.48,2.48,0,0,1,.82,2.14c0,.39-1.08,9.65-4.64,14.29a11,11,0,0,1-6.76,4.46,8.22,8.22,0,0,1-1.45.13,8.72,8.72,0,0,1-3.1-.57l-1.35-.5v9.8A2.52,2.52,0,0,1,151.08,142.16ZM63.15,134.7a10.49,10.49,0,0,1,3.93,1l.13.05a7.72,7.72,0,0,0,2.59.71,8.78,8.78,0,0,0,3.7-.93l.79-.37-.27-.84a9.31,9.31,0,0,1-.45-2.9,9.77,9.77,0,0,1,9.73-9.76h.92l.08-.91a.43.43,0,0,1,0-.11c3.18-12.72-2-18.35-2.25-18.58l-.22-.25A10.37,10.37,0,0,0,78.59,99a10.7,10.7,0,0,0-5.12-1.32,21.67,21.67,0,0,0-5,.78,22.71,22.71,0,0,1-5.32.84,22.74,22.74,0,0,1-5.25-.82,21.81,21.81,0,0,0-5.07-.8A10.63,10.63,0,0,0,47.72,99c-5.95,3.18-8.28,12.66-5.52,22.53,2,7.19,8,15,14.3,15a7.89,7.89,0,0,0,2.66-.74A10.55,10.55,0,0,1,63.15,134.7Zm35,1.67h6.49c3.06,0,6.7-.86,6.7-5s-3.64-4.95-6.7-4.95H98.12Zm-13.05-9.9c-3.06,0-6.7.86-6.7,4.95s3.64,5,6.7,5h8.25v-9.9Zm78.52-10.79a25.43,25.43,0,0,0-7.54,3.61c-1.5,1.21-2.32,2.39-2.3,3.32a3.34,3.34,0,0,0,1.53,2.26,4.54,4.54,0,0,0,2.74,1,3.26,3.26,0,0,0,.62-.06,6.16,6.16,0,0,0,3.62-2.56,19.83,19.83,0,0,0,2.62-6.41l.45-1.78Zm-26.32,1.2a18.73,18.73,0,0,0,2.63,6.41,6.11,6.11,0,0,0,3.61,2.56,3.36,3.36,0,0,0,.63.06,4.45,4.45,0,0,0,2.73-1,3.48,3.48,0,0,0,1.54-2.24c0-1-.84-2.16-2.32-3.33a25.23,25.23,0,0,0-7.53-3.61l-1.75-.58Zm26.33-15.11a26.65,26.65,0,0,0-7.55,3.6c-1.5,1.21-2.32,2.39-2.3,3.32a3.28,3.28,0,0,0,1.54,2.26,4.52,4.52,0,0,0,2.74,1,4,4,0,0,0,.6,0,6.16,6.16,0,0,0,3.62-2.57,18.34,18.34,0,0,0,2.63-6.41l.44-1.76ZM137.27,103a18.66,18.66,0,0,0,2.63,6.4,6.11,6.11,0,0,0,3.61,2.56,3.42,3.42,0,0,0,.62.06,4.51,4.51,0,0,0,2.74-1,3.48,3.48,0,0,0,1.54-2.24c0-1-.84-2.16-2.32-3.33a26.46,26.46,0,0,0-7.54-3.6l-1.74-.57ZM163.6,87.85a26.65,26.65,0,0,0-7.55,3.6c-1.5,1.21-2.32,2.39-2.3,3.32A3.34,3.34,0,0,0,155.28,97a4.45,4.45,0,0,0,2.73,1,3.36,3.36,0,0,0,.63-.06,6.16,6.16,0,0,0,3.62-2.56A18.29,18.29,0,0,0,164.88,89l.44-1.76Zm-26.33,1.2a18.66,18.66,0,0,0,2.63,6.4A6.11,6.11,0,0,0,143.51,98a3.36,3.36,0,0,0,.63.06,4.54,4.54,0,0,0,2.72-1,3.42,3.42,0,0,0,1.55-2.26c0-1-.84-2.16-2.32-3.33a26.46,26.46,0,0,0-7.54-3.6l-1.74-.57Zm12.91-13.82c-1.27,2-2.84,4.93-3.12,7A4.6,4.6,0,0,0,147.8,86,4.3,4.3,0,0,0,151,87.07,4.44,4.44,0,0,0,154.35,86c.65-.74.87-2,.63-3.67a13.34,13.34,0,0,0-1.16-3.55,35.16,35.16,0,0,0-1.94-3.51L151,73.86Zm-98.43,3A8.27,8.27,0,0,0,53.9,81.9a7.74,7.74,0,0,0,3.31,1.83l2,.58-.83-1.93a10.23,10.23,0,0,0-3.15-4.32A6.75,6.75,0,0,0,53,77l-1.73-.44Zm44.79-5.71h23.67v-4H96.54Zm-.87-19a3.85,3.85,0,0,0-3.84,3.85v5.92h34V57.42A3.86,3.86,0,0,0,122,53.57Z"/><path class="cls-1" d="M123.7,95.12a2.52,2.52,0,0,1-2.51-2.51V86.19a2.51,2.51,0,0,1,5,0v6.42A2.51,2.51,0,0,1,123.7,95.12Z"/><path class="cls-1" d="M123.7,106.1a2.51,2.51,0,0,1-2.51-2.51v-1.48a2.51,2.51,0,1,1,5,0v1.48A2.51,2.51,0,0,1,123.7,106.1Z"/></svg>