<svg xmlns="http://www.w3.org/2000/svg" width="16" height="16" viewBox="0 0 16 16">
  <g id="Group_12368" data-name="Group 12368" transform="translate(8872 -9479)">
    <g id="Group_12364" data-name="Group 12364">
      <rect id="Rectangle_4114" data-name="Rectangle 4114" width="16" height="16" transform="translate(-8872 9479)" fill="none"/>
      <g id="Group_12363" data-name="Group 12363" transform="translate(-7.904 -54.795)">
        <path id="Path_11195" data-name="Path 11195" d="M18.861,11h0Z" transform="translate(-8873.264 9527.834)" fill="#219cd7" stroke="#fff" stroke-width="1"/>
        <path id="Path_11198" data-name="Path 11198" d="M19.465,14.039,17.7,11,16,14.039Z" transform="translate(-8872.166 9527.834)" fill="none" stroke="#fff" stroke-width="0.5"/>
        <path id="Path_11199" data-name="Path 11199" d="M15.961,16Z" transform="translate(-8872.127 9525.873)" fill="#219cd7" stroke="#fff" stroke-width="1"/>
        <path id="Path_11201" data-name="Path 11201" d="M13.061,11h0Z" transform="translate(-8870.989 9527.834)" fill="#219cd7" stroke="#fff" stroke-width="1"/>
        <path id="Path_11202" data-name="Path 11202" d="M18.8,21h0Z" transform="translate(-8873.264 9523.913)" fill="#219cd7" stroke="#fff" stroke-width="1"/>
        <path id="Path_11204" data-name="Path 11204" d="M21.7,16Z" transform="translate(-8874.401 9525.873)" fill="#219cd7" stroke="#fff" stroke-width="1"/>
        <path id="Path_11206" data-name="Path 11206" d="M13,21h0Z" transform="translate(-8870.989 9523.913)" fill="#219cd7" stroke="#fff" stroke-width="1"/>
        <path id="Path_11207" data-name="Path 11207" d="M10.2,16Z" transform="translate(-8869.892 9525.873)" fill="#219cd7" stroke="#fff" stroke-width="1"/>
        <path id="Path_11209" data-name="Path 11209" d="M7.3,11Z" transform="translate(-8868.755 9527.834)" fill="#219cd7" stroke="#fff" stroke-width="1"/>
        <path id="Path_11221" data-name="Path 11221" d="M15.961,26Z" transform="translate(-8872.127 9521.952)" fill="#219cd7" stroke="#fff" stroke-width="1"/>
        <path id="Path_11237" data-name="Path 11237" d="M27.5,16Z" transform="translate(-8876.676 9525.873)" fill="#219cd7" stroke="#fff" stroke-width="1"/>
        <path id="Path_11245" data-name="Path 11245" d="M21.7,6Z" transform="translate(-8874.401 9529.795)" fill="#219cd7" stroke="#fff" stroke-width="1"/>
        <path id="Path_11246" data-name="Path 11246" d="M10.2,6Z" transform="translate(-8869.892 9529.795)" fill="#219cd7" stroke="#fff" stroke-width="1"/>
        <path id="Path_11251" data-name="Path 11251" d="M15.961,6h0Z" transform="translate(-8872.127 9529.795)" fill="#219cd7" stroke="#fff" stroke-width="1"/>
        <path id="Path_11252" data-name="Path 11252" d="M24.6,11Z" transform="translate(-8875.539 9527.834)" fill="#219cd7" stroke="#fff" stroke-width="1"/>
        <path id="Path_11259" data-name="Path 11259" d="M24.6,21Z" transform="translate(-8875.539 9523.913)" fill="#219cd7" stroke="#fff" stroke-width="1"/>
        <path id="Path_11196" data-name="Path 11196" d="M14.8,14.039h.061L16.565,11H13.1Z" transform="translate(-8871.029 9527.834)" fill="none" stroke="#fff" stroke-width="0.5"/>
        <path id="Path_11197" data-name="Path 11197" d="M16.565,19.039,14.863,16,13.1,19.039Z" transform="translate(-8871.029 9525.873)" fill="none" stroke="#fff" stroke-width="0.5"/>
        <path id="Path_11200" data-name="Path 11200" d="M10.2,14.039h3.465L11.963,11Z" transform="translate(-8869.892 9527.834)" fill="none" stroke="#fff" stroke-width="0.5"/>
        <path id="Path_11208" data-name="Path 11208" d="M13.726,16H10.2l1.7,3.039h.061Z" transform="translate(-8869.892 9525.873)" fill="none" stroke="#fff" stroke-width="0.5"/>
        <path id="Path_11211" data-name="Path 11211" d="M22.365,19.039,20.6,16l-1.7,3.039Z" transform="translate(-8873.304 9525.873)" fill="none" stroke="#fff" stroke-width="0.5"/>
        <path id="Path_11218" data-name="Path 11218" d="M19.465,24.039,17.7,21,16,24.039Z" transform="translate(-8872.166 9523.913)" fill="none" stroke="#fff" stroke-width="0.5"/>
        <path id="Path_11219" data-name="Path 11219" d="M14.863,6,13.1,9.039h3.465Z" transform="translate(-8871.029 9529.795)" fill="none" stroke="#fff" stroke-width="0.5"/>
        <path id="Path_11222" data-name="Path 11222" d="M10.2,24.039h3.465L11.963,21Z" transform="translate(-8869.892 9523.913)" fill="none" stroke="#fff" stroke-width="0.5"/>
        <path id="Path_11223" data-name="Path 11223" d="M7.3,19.039h3.465L9.063,16Z" transform="translate(-8868.755 9525.873)" fill="none" stroke="#fff" stroke-width="0.5"/>
        <path id="Path_11224" data-name="Path 11224" d="M13.1,21h0l1.7,3.039h.061L16.565,21H13.1Z" transform="translate(-8871.029 9523.913)" fill="none" stroke="#fff" stroke-width="0.5"/>
        <path id="Path_11236" data-name="Path 11236" d="M23.463,21,21.7,24.039h3.282l.122-.122Z" transform="translate(-8874.401 9523.913)" fill="none" stroke="#fff" stroke-width="0.5"/>
        <path id="Path_11242" data-name="Path 11242" d="M6.241,21,4.6,23.857c.061.061.122.122.122.182H7.943Z" transform="translate(-8867.695 9523.913)" fill="none" stroke="#fff" stroke-width="0.5"/>
        <path id="Path_11258" data-name="Path 11258" d="M18.861,21H18.8l1.763,3.039h0L22.326,21H18.861Z" transform="translate(-8873.264 9523.913)" fill="none" stroke="#fff" stroke-width="0.5"/>
        <path id="Path_11261" data-name="Path 11261" d="M10.826,21H7.3l1.763,3.039h0Z" transform="translate(-8868.755 9523.913)" fill="none" stroke="#fff" stroke-width="0.5"/>
        <path id="Path_11264" data-name="Path 11264" d="M7.3,21Z" transform="translate(-8868.755 9523.913)" fill="#219cd7" stroke="#fff" stroke-width="1"/>
        <path id="Path_11265" data-name="Path 11265" d="M10.2,26Z" transform="translate(-8869.892 9521.952)" fill="#219cd7" stroke="#fff" stroke-width="1"/>
      </g>
    </g>
  </g>
</svg>
