<?xml version="1.0" encoding="utf-8"?>
<!-- Generator: Adobe Illustrator 24.0.3, SVG Export Plug-In . SVG Version: 6.00 Build 0)  -->
<svg version="1.1" id="Layer_1" xmlns="http://www.w3.org/2000/svg" xmlns:xlink="http://www.w3.org/1999/xlink" x="0px" y="0px"
	 viewBox="0 0 256 256" style="enable-background:new 0 0 256 256;" xml:space="preserve">
<style type="text/css">
	.st0{fill:#F6F6F6;}
	.st1{fill:#131D6E;}
</style>
<g>
	<g>
		<g>
			<g>
				<g>
					<circle class="st0" cx="128" cy="128" r="118.31"/>
				</g>
			</g>
		</g>
	</g>
	<path id="XMLID_82_" class="st1" d="M199.13,110.88c1.82-6.17,1.67-11.29-0.29-15.21c-1.77-3.53-4.49-5.66-7.02-7.36
		c-1.78-6.81-6.49-12.58-14.03-14.86c-2.06-3.37-4.5-6.31-7.59-8.44c-3.07-2.12-6.8-3.26-10.81-3.31
		c-7.04-6.6-14.74-10.09-22.54-10.37c-0.28-0.01-0.54,0-0.82,0c-4.16-0.02-8.36,0.92-12.45,2.67c-4.38-1.26-10.54-2.87-17.97,0.79
		c-4.68-0.81-9.41,0.82-13.36,4.2c-2.96-0.36-5.77,0.16-8.07,1.33c-2.56,1.3-4.46,3.18-6.15,5.04c-8.3,2.74-13.49,6.69-16.63,11.11
		c-3.08,4.33-4.35,8.52-5.96,11.95c-2.97,2.31-5.77,5.27-7.26,9.53c-1.59,4.57-1.63,10.2-0.1,17.43
		c-0.96,9.06,0.68,16.43,5.38,21.24c4.47,4.56,11,5.95,18.26,5.33c5.48,3.68,12.56,3.91,20.23,2.67c4.16,2.94,8.97,5.32,14.66,6.57
		c1.61,5.04,2.72,10.29,4.81,15.31c2.36,5.69,6.45,11.13,13.6,14.07c3.88,1.6,7.21,5.11,9.27,7.95c0.01,0.01,0.04,0.03,0.05,0.05
		c1.19,1.96,1.88,3.52,3.8,5.04c2.01,1.59,4.36,1.89,7.02,2.07c6.99,0.46,12.37-2.68,16.39-6.02v-0.05
		c0.18-0.15,0.38-0.27,0.53-0.44c0.64-0.72,0.92-1.55,1.06-2.17c0.28-1.24,0.14-1.98-0.05-2.91c-0.38-1.88-1.27-4.44-3.41-9.28
		c-0.12-0.27-0.22-0.56-0.34-0.84c1.85-0.05,3.65-0.38,5.38-0.84c6.27-1.64,11.79-5.2,15.47-8c5.95-4.52,9.96-8.01,12.4-11.7
		c2.78-4.22,3.94-12.1,2.02-16.74c0.67-0.56,1.29-1.16,1.87-1.83C201.34,129.24,201.79,120.9,199.13,110.88z M145.74,186.88
		c-1.69-0.12-2.21-0.23-2.31-0.25c0.07,0.04-0.6-0.84-1.97-3.06c-0.05-0.09-0.13-0.16-0.19-0.25c-2.61-3.59-6.82-8.36-13.02-10.91
		c-4.98-2.05-7-4.93-8.84-9.38c-1.25-3-2.32-6.8-3.51-10.86c1.55-0.01,3.14-0.13,4.81-0.3c2.97,1.11,6.62,2.97,11.44,3.16
		c2.55,0.1,6.72-1.46,9.95-3.01c-0.38,5.46,0.57,10.99,3.65,15.26c0.83,1.14,1.73,2.16,2.74,3.01c1.14,2.93,2.3,5.7,3.36,8.1
		c1.32,2.99,1.92,4.74,2.31,5.93C151.63,186.12,149.21,187.1,145.74,186.88z M185.53,148.31c-1.57,2.26-4.85,5.45-10.48,9.73
		c-3.1,2.35-8.08,5.41-12.49,6.57c-2.21,0.58-4.19,0.67-5.77,0.3c-6.35-2.16-7.54-12.2-5.29-17.78c2.82-1.05,5.44-2.83,7.93-5.23
		c1.79,0.89,3.67,1.66,5.86,1.93c2.99,0.36,6.37-0.44,9.37-2.42c4.34,0.23,8.31-0.03,11.82-0.89
		C187.57,143.08,187.54,145.87,185.53,148.31z M190,128.95c-2.12,2.44-6.73,4.02-14.37,3.7c-0.5-3.45-0.62-5.16-0.58-5.48
		c0.02-0.16-0.04-0.05,0.1-0.25s0.52-0.65,1.11-1.33c1.09-1.24,1-3.14-0.22-4.26c-0.55-0.5-1.26-0.78-1.99-0.78
		c-0.87,0-1.7,0.4-2.26,1.09c-0.54,0.64-1,1.15-1.49,1.88s-0.96,1.76-1.11,2.77c-0.3,2.01,0.1,3.76,0.62,7.36
		c0,0.17,0.02,0.33,0.05,0.49c-1.32,0.91-2.31,1.09-3.56,0.94c-1.49-0.18-3.36-1.04-5.38-2.32c-1.72-1.09-4.24-0.72-5.57,0.84
		c-3.36,3.94-5.39,5.28-8.22,5.68c-0.04-0.09-0.09-0.17-0.14-0.25c-0.87-1.7-1.24-2.57-1.35-3.11s-0.08-1.15,0.43-2.96
		c0.48-1.59-0.4-3.28-1.96-3.77c-0.31-0.1-0.64-0.14-0.97-0.13c-1.31,0.03-2.44,0.94-2.79,2.22c-0.63,2.2-0.86,4.04-0.53,5.83
		c0.34,1.79,1.07,3.08,1.92,4.74c0.03,0.07,0.06,0.13,0.1,0.2c-4.13,3.66-6.87,4.3-9.37,4.2c-2.29-0.09-4.86-1.16-7.83-2.27
		c0.04-0.28,0.04-0.56,0-0.84c-0.61-5.2-0.24-7.46,0.29-8.59c0.53-1.14,1.6-1.9,3.65-3.75c1.26-1.06,1.44-2.96,0.41-4.25
		c-0.63-0.77-1.59-1.18-2.57-1.09c-0.66,0.05-1.29,0.33-1.78,0.79c-1.73,1.57-3.79,2.9-5.09,5.68c-1.25,2.67-1.44,6.07-0.86,11.36
		c-10.28,0.83-16.78-2.02-22.73-6.52c0.02-0.13,0.04-0.26,0.05-0.4c0.29-2.73,0.81-3.35,1.25-3.75c0.44-0.4,1.51-0.83,3.41-1.68
		c1.5-0.67,2.18-2.45,1.52-3.97c-0.49-1.13-1.61-1.85-2.82-1.8c-0.36,0.02-0.72,0.1-1.06,0.25c-1.49,0.67-3.24,1.07-5,2.67
		c-1.76,1.6-2.8,4.16-3.17,7.65c-0.02,0.11-0.04,0.23-0.05,0.35c-6.84,1.01-11.67,0.27-14.37-1.98c-0.9-0.75-2.11-1.14-3.27-0.99
		c-6.47,0.85-10.55-0.34-12.88-2.72c-2.33-2.38-3.79-6.83-2.84-14.72c0.02-0.19,0.05-0.36,0.05-0.54c0.51-0.18,1.01-0.3,1.44-0.35
		c1.31-0.15,2.52,0.1,4.52,1.38c1.33,0.97,3.18,0.67,4.13-0.69c0.96-1.35,0.65-3.24-0.67-4.21c-0.09-0.07-0.19-0.13-0.29-0.19
		c-2.08-1.34-4.21-2.14-6.29-2.32c-0.7-0.06-1.38-0.08-2.07,0c-0.6,0.07-1.2,0.24-1.78,0.4c-0.43-3.79-0.11-6.4,0.53-8.25
		c0.67-1.92,1.71-3.31,3.32-4.69c1.66,1.38,4.29,3.59,8.07,4.69c2.58,0.75,5.65,0.95,9.18,0.25c0.21,0.01,0.42-0.01,0.62-0.05
		c0.52-0.1,1.02-0.25,1.49-0.44c0.02,0-0.02-0.04,0-0.05c1-0.29,2.06-0.64,3.12-1.09c4.72-1.98,7.79-1.75,9.95-0.99
		c2.16,0.76,3.52,2.16,4.42,3.26c1.04,1.28,2.91,1.46,4.17,0.4c1.26-1.06,1.44-2.97,0.39-4.25c-1.23-1.5-3.49-3.88-7.06-5.14
		c-2.69-0.94-6.09-1.2-10.04-0.25c0.16-2.19-0.03-4.08,0-4.59c0.13-1.66-1.08-3.12-2.71-3.25c-0.12-0.01-0.24-0.01-0.37-0.01
		c-1.53,0.06-2.76,1.31-2.84,2.86c-0.14,2.05,0.18,4.03-0.05,5.53c-0.12,0.75-0.38,1.22-0.58,1.48c-0.09,0.12-0.16,0.26-0.29,0.35
		c-3.31,0.95-5.77,0.73-7.78,0.15c-2.47-0.72-4.3-2.11-5.86-3.41c1.8-3.88,2.95-7.28,4.9-10.02c2.22-3.12,5.51-5.95,13.26-8.3
		c0.76-0.23,1.44-0.68,1.97-1.28c1.61-1.83,3.13-3.2,4.42-3.85c1.02-0.52,1.9-0.77,3.22-0.54c0.94,1.98,2.36,4.07,3.46,6.47
		c0.01,0.12,0.03,0.23,0.05,0.35c0.2,1.02-0.01,1.31-0.72,2.02s-2.01,1.41-3.12,1.88c-1.51,0.65-2.22,2.42-1.58,3.97
		c0.64,1.54,2.38,2.26,3.89,1.61c1.45-0.61,3.34-1.5,5-3.16c0.96,0.84,2.02,1.39,3.03,1.63c2.16,0.52,4.06,0.21,4.76,0.2
		c1.63,0.06,3.01-1.24,3.07-2.9c0.06-1.67-1.21-3.07-2.85-3.13c-0.11,0-0.21,0-0.32,0c-1.38,0.03-2.57,0.12-3.27-0.05
		c-0.7-0.17-0.84-0.01-1.2-1.33c-1.07-3.89-3.11-7.16-4.23-8.99c3.02-3.01,5.06-3.51,7.69-2.67c1.13,0.36,2.38,0.2,3.41-0.4
		c5.3-3.11,7.85-2.39,11.63-1.19c-0.12,1.48-0.03,3.18,0.19,5.18c0.44,4.05,1.41,9.15,2.69,13.78c0.18,0.67-0.04,3-1.15,4.74
		c-1.11,1.74-2.64,2.96-5.14,2.96c-1.63-0.09-3.03,1.19-3.12,2.85c-0.09,1.66,1.16,3.09,2.79,3.18c0.11,0.01,0.22,0.01,0.32,0
		c4.6-0.01,8.18-2.66,10.14-5.73c1.46-2.3,2.26-4.77,2.21-7.21c0.88,0.24,1.73,0.43,2.45,0.54c1.62,0.24,3.12-0.9,3.36-2.55
		c0.24-1.65-0.88-3.18-2.5-3.43c-1.08-0.17-2.62-0.57-3.65-1.09c-1.03-0.52-1.11-0.85-1.11-0.79c-0.04-0.4-0.15-0.78-0.34-1.14
		c-0.49-2.44-0.89-4.84-1.11-6.81c-0.18-1.68-0.18-2.97-0.14-3.75c0.11-0.12,0.2-0.26,0.29-0.4c3.68-1.73,7.15-2.62,10.57-2.57
		c5.66,0.09,11.17,2.84,17.15,8.64c-0.03,0.06-0.07,0.13-0.1,0.2c-0.62,1.52-2.71,5.84-6.87,7.8c-1.49,0.7-2.13,2.5-1.44,4.02
		c0.69,1.51,2.45,2.17,3.94,1.47c6.38-3.01,9.03-8.96,9.85-10.96c0.06-0.16,0.11-0.33,0.14-0.49c2.36,0,4.19,0.66,5.96,1.88
		c1.61,1.11,3.2,2.77,4.66,4.99c-0.03,0.04-0.14,0.25-0.14,0.25c-0.11,0.15-0.21,0.32-0.29,0.49c0,0-0.32,0.75-0.62,1.43
		c-0.18,0.37-0.38,0.77-0.53,1.14c-0.53,1.03-1.18,2.18-1.97,3.21c-0.93,1.22-1.98,2.1-2.69,2.37c-0.71,0.27-1.04,0.39-2.21-0.49
		c-1.32-0.99-3.18-0.69-4.15,0.66c-0.97,1.35-0.68,3.24,0.64,4.23c2.45,1.85,5.51,2.19,7.83,1.28c0.91-0.35,1.68-0.88,2.4-1.43
		c0.61,1.58,1.47,3.16,2.5,4.74c0.82,1.44,2.63,1.94,4.04,1.1c1.41-0.83,1.9-2.68,1.08-4.12c-0.07-0.12-0.14-0.23-0.22-0.34
		c-1.52-2.33-2.24-3.99-2.4-5.38c-0.15-1.33,0.11-2.69,1.25-4.79c6.3,1.42,8.27,4.39,9.27,10.17c0.21,1.2,0.92,2.26,1.92,2.91
		c2.71,1.75,4.62,3.23,5.48,4.94c0.73,1.46,1.14,3.57,0.1,7.56c-1.22,0.8-3.46,1.15-5.67,0.99c-1.2-0.09-2.37-0.29-3.27-0.54
		c-0.9-0.25-1.64-0.69-1.44-0.54c-1.34-0.97-3.2-0.66-4.15,0.71c-0.96,1.36-0.65,3.26,0.69,4.23c1.06,0.77,2.03,1.07,3.32,1.43
		s2.8,0.62,4.42,0.74c1.81,0.13,3.82,0.1,5.77-0.4C193.01,121.93,192.14,126.49,190,128.95z"/>
</g>
</svg>
