<svg id="Layer_1" data-name="Layer 1" xmlns="http://www.w3.org/2000/svg" viewBox="0 0 200 200"><defs><style>.cls-1{fill:#fff;stroke:#1d1d1b;stroke-miterlimit:10;}.cls-2{fill:#230a70;}</style></defs><rect class="cls-1" x="-103.24" y="-225.67" width="1254.41" height="578.15"/><circle class="cls-2" cx="100" cy="100" r="100"/><path class="cls-1" d="M137.85,52.31H123.57V50.13a8.55,8.55,0,0,0-8.49-8.61h-3.44v-.18a11.79,11.79,0,1,0-23.57,0v.18H84.92a8.55,8.55,0,0,0-8.49,8.61v2.18H62.15a12.65,12.65,0,0,0-12.7,12.58v93a12.69,12.69,0,0,0,12.7,12.61h75.7a12.69,12.69,0,0,0,12.7-12.61V64.89A12.65,12.65,0,0,0,137.85,52.31Zm-45.23-11a7.24,7.24,0,1,1,14.48,0v.18H92.62ZM81,50.13a4,4,0,0,1,4-4.06h30.16a4,4,0,0,1,4,4.06h0V63.67H81Zm65,107.71a8.11,8.11,0,0,1-8.15,8.06H62.15A8.11,8.11,0,0,1,54,157.84V64.89a8.08,8.08,0,0,1,8.15-8H76.43v9a2.27,2.27,0,0,0,2.2,2.34h42.74a2.27,2.27,0,0,0,2.2-2.33h0v-9h14.28a8.08,8.08,0,0,1,8.15,8Z"/><path class="cls-1" d="M70,144.32H99.34a2.27,2.27,0,0,0,0-4.54H70a2.27,2.27,0,1,0,0,4.54Z"/><path class="cls-1" d="M130,150.57H70a2.27,2.27,0,1,0,0,4.54h60a2.27,2.27,0,0,0,0-4.54Z"/><path class="cls-1" d="M99.91,133.16a20.12,20.12,0,0,0,8-38.56v-19a2.27,2.27,0,0,0-2.27-2.27H93.75a2.27,2.27,0,0,0-2.27,2.27v19a20.18,20.18,0,0,0,8.43,38.56Zm3.5-55.29v3.69H96V77.87Zm-8.89,20.4A2.27,2.27,0,0,0,96,96.13v-10h7.39v10a2.27,2.27,0,0,0,1.5,2.14,16.2,16.2,0,0,1,9.65,9.66,12.41,12.41,0,0,0-2.3.92,7.37,7.37,0,0,1-6.91,0,11.93,11.93,0,0,0-10.91,0,7.37,7.37,0,0,1-6.91,0,12.28,12.28,0,0,0-2.48-1,15.69,15.69,0,0,1,9.47-9.61ZM84.2,112.36a10.43,10.43,0,0,1,1.33.57,11.87,11.87,0,0,0,10.91,0,7.37,7.37,0,0,1,6.91,0,11.87,11.87,0,0,0,10.91,0,10.45,10.45,0,0,1,1.19-.52c0,.2,0,.39,0,.59a15.64,15.64,0,0,1-31.27,0C84.19,112.79,84.19,112.57,84.2,112.36Z"/></svg>