<?xml version="1.0" encoding="utf-8"?>
<!-- Generator: Adobe Illustrator 24.0.3, SVG Export Plug-In . SVG Version: 6.00 Build 0)  -->
<svg version="1.1" id="Layer_1" xmlns="http://www.w3.org/2000/svg" xmlns:xlink="http://www.w3.org/1999/xlink" x="0px" y="0px"
	 viewBox="0 0 256 256" style="enable-background:new 0 0 256 256;" xml:space="preserve">
<style type="text/css">
	.st0{fill:#F6F6F6;}
	.st1{fill:#131D6E;}
</style>
<g>
	<g>
		<circle class="st0" cx="128" cy="128" r="104.12"/>
	</g>
	<g>
		<g>
			<g>
				<g>
					<g id="XMLID_51_">
						<g id="XMLID_59_">
							<g id="XMLID_64_">
								<path class="st1" d="M187.39,42.01l-0.09-0.03l-36.9,61.42l-4.5-0.5l35.95-62.32c0.4-0.7,0.14-1.61-0.58-1.97
									c-4.11-2.06-8.38-3.85-12.82-5.37c-1.57-0.57-3.16-1.06-4.76-1.55c-9.79,14.65-21.76,29.8-33.55,38.61
									c0,0-50.47,33.75-24.28,49.86l11.14,0.97c0,0,8.62,16.86,26.76,11.05c0,0,6.05-0.77,8.92,2.52c0,0,13.99,11.33,21.36-8.12
									c6.87-18.12,4.21-34.99,3.84-37.08c-0.03-0.16-0.04-0.24-0.01-0.4c0.43-2.45,5.26-29.11,12.89-36.86l3.39-6.04L187.39,42.01
									z"/>
							</g>
							<g id="XMLID_60_">
								<path class="st1" d="M156.68,169.63c0,0-13.8,19.8-33.05,27.54c-0.17,0.07-0.29,0.14-0.41,0.27
									c-1.59,1.72-14.78,16.06-23.96,29.57c-0.36,0.53-1.04,0.74-1.64,0.51c-5.35-2.02-10.37-4.39-15.2-7.13
									c-0.67-0.38-0.9-1.25-0.51-1.92l20.3-35.01c0,0,12.21-21.66,39.27-21.47c0,0-22.83-6.85-36.76,7.79
									c-0.09,0.1-0.18,0.21-0.25,0.33l-27.59,46.9c-2.53-1.55-4.98-3.36-7.43-5.17c5.89-11.38,17-35.8,13.47-54.12
									c0,0,2.23-47.75,28.78-24.56c0,0,10.35,13.42,25.84,11.84C137.54,145.01,174.65,139.55,156.68,169.63z"/>
							</g>
						</g>
					</g>
				</g>
			</g>
		</g>
	</g>
</g>
</svg>
