<svg id="Layer_1" data-name="Layer 1" xmlns="http://www.w3.org/2000/svg" viewBox="0 0 200 200"><defs><style>.cls-1{fill:#fff;stroke:#1d1d1b;stroke-miterlimit:10;}.cls-2{fill:#230a70;}</style></defs><rect class="cls-1" x="-543.24" y="-225.67" width="1254.41" height="578.15"/><circle class="cls-2" cx="100" cy="100" r="100"/><path class="cls-1" d="M160.72,96c-6.13-1.53-6.59-11.36-6.62-17.13a8.14,8.14,0,0,0,0-10.81,31.35,31.35,0,0,0-8.44-20.26,26.94,26.94,0,0,0-40.23,0A31.34,31.34,0,0,0,97,68l0,0V65.3c0-6.5-3.12-13.18-8.55-18.33a29.53,29.53,0,0,0-20-8.21,29.53,29.53,0,0,0-20,8.21C42.9,52.12,39.78,58.8,39.78,65.3v2.77A8.16,8.16,0,0,0,45.9,81.63c.28,0,.56,0,.84,0a22.45,22.45,0,0,0,5.19,9.21,26.57,26.57,0,0,0-14.19,23.49V159.2a2,2,0,0,0,2,2H154.1a2,2,0,0,0,2-2V114.29a26.47,26.47,0,0,0-.83-6.57A9,9,0,0,0,161,103a12.16,12.16,0,0,0,1.23-5A2,2,0,0,0,160.72,96Zm-8.67,28.52H148V101.39a22.4,22.4,0,0,1,4.08,12.9Zm-8.16,32.66H127.56V107.75l5.27-3.51a2,2,0,0,0,.85-1.21l1.86-7.43a22.89,22.89,0,0,0,3.11-1.87A22.33,22.33,0,0,1,143.89,97ZM50,149H66.32v8.17H50Zm20.41,0H86.73v8.17H70.4Zm20.41-20.41H94.9v28.58H90.81ZM94.9,73.46a4.1,4.1,0,0,1-4.09,4.09h-.09q.09-1,.09-2V69.38A4.09,4.09,0,0,1,94.9,73.46Zm8.16-4.08V75.5a19.63,19.63,0,0,0,.1,2h-.1a4.09,4.09,0,0,1,0-8.17ZM90,81.58a7.55,7.55,0,0,0,.83,0A8.16,8.16,0,0,0,96.9,78.9c-.18,6.16-1.22,13.7-6.58,15a1.92,1.92,0,0,0-.57.24,26.49,26.49,0,0,0-5-3.38A22.71,22.71,0,0,0,90,81.58Zm10.91-.25a8,8,0,0,0,2.17.3c.28,0,.56,0,.84,0a22.45,22.45,0,0,0,5.19,9.21,26.6,26.6,0,0,0-12.15,13.3,26.54,26.54,0,0,0-4.06-6.73c6.26-2.64,7.67-10.54,8-16Zm-1.91,33a22.47,22.47,0,0,1,4.08-12.9V124.5H99ZM107.14,97a22.68,22.68,0,0,1,5.27-3.25,21.5,21.5,0,0,0,3.22,1.94l1.84,7.37a2.14,2.14,0,0,0,.85,1.21l5.16,3.43v49.49H107.14Zm18.44,7.2-4.34-2.89-1-3.94a22.43,22.43,0,0,0,10.65,0l-1,4Zm-.06-10.29A18.41,18.41,0,0,1,107.14,75.5V71.1a9.19,9.19,0,0,0,5.91-4.89c.28-.56.56-1.06.83-1.5a2,2,0,0,0,2.87-2.9l-.06-.06a4.74,4.74,0,0,1,2.39-.54,7.78,7.78,0,0,0,6.35-3.49,7.4,7.4,0,0,0,6.21,3.49,5.62,5.62,0,0,1,2.64.6,2,2,0,0,0,2.87,2.91c.27.44.55.93.83,1.49a9.26,9.26,0,0,0,5.15,4.65,7.27,7.27,0,0,0,.76.24v4.4a18.81,18.81,0,0,1-.29,3.26A18.34,18.34,0,0,1,125.52,93.88ZM148,75.5V69.38a4.09,4.09,0,0,1,0,8.17h-.09Q148,76.52,148,75.5Zm-5.31-24.93a27.22,27.22,0,0,1,7.09,14.92,8.19,8.19,0,0,0-6.16,1.08,5.22,5.22,0,0,1-2-2.18,19.08,19.08,0,0,0-1.55-2.61l1.17-1.16a2,2,0,0,0-2.89-2.89l-1.13,1.13a9.46,9.46,0,0,0-5.59-1.73c-2.65,0-3.83-3.49-4.08-4.35V42.94A23.67,23.67,0,0,1,142.66,50.57Zm-34.28,0a23.67,23.67,0,0,1,15.1-7.63v9.79c-.33,1-1.72,4.4-4.4,4.4a8.84,8.84,0,0,0-5.35,1.66l-1.06-1.06a2,2,0,1,0-2.89,2.89l1.15,1.14a22.94,22.94,0,0,0-1.53,2.62,5.25,5.25,0,0,1-2,2.19,8.17,8.17,0,0,0-6.15-1.08,27.22,27.22,0,0,1,7.09-14.92Zm-57.25-.63a25.45,25.45,0,0,1,17.23-7.1,25.43,25.43,0,0,1,17.22,7.1c4.62,4.38,7.28,10,7.28,15.36v.26a7.89,7.89,0,0,0-2-.26h-2a2,2,0,0,0-.79.16c-.27.11-.54.25-.83.39A12.34,12.34,0,0,1,82,67.29,31.81,31.81,0,0,0,77.83,60a2.06,2.06,0,0,0-2.3-.72,2,2,0,0,0-1.36,1.94c0,.46-.28,4.41-5.81,6.07-5.53-1.66-5.8-5.61-5.81-6.05a2,2,0,0,0-1.36-2,2.06,2.06,0,0,0-2.3.71,31.6,31.6,0,0,0-4.18,7.32,13,13,0,0,1-4.91-1.37c-.39-.18-.76-.35-1.14-.49A1.94,1.94,0,0,0,48,65.3H45.9a7.87,7.87,0,0,0-2,.26V65.3C43.86,59.91,46.51,54.32,51.13,49.94ZM45.9,77.55a4.09,4.09,0,0,1,0-8.17V75.5c0,.69,0,1.37.1,2ZM50,70.43a17.46,17.46,0,0,0,6.12,1,2,2,0,0,0,2-1.44,25.65,25.65,0,0,1,1.84-4.11,12.52,12.52,0,0,0,7.95,5.49,2.2,2.2,0,0,0,1,0c4.48-1.17,6.78-3.56,7.94-5.49A24.84,24.84,0,0,1,78.66,70a2,2,0,0,0,2,1.44,18,18,0,0,0,6.12-.94v5A18.37,18.37,0,1,1,50,75.5ZM76.06,96.6a8.17,8.17,0,0,1-15.4,0A22.52,22.52,0,0,0,76.06,96.6ZM55.25,93.72q.44.32.87.6a12.25,12.25,0,0,0,24.48,0q.44-.28.87-.6A22.51,22.51,0,0,1,94.9,114.29V124.5H90.81v-6.13a2,2,0,1,0-4.08,0v26.54H50V118.37a2,2,0,0,0-4.09,0v6.13H41.82V114.29A22.51,22.51,0,0,1,55.25,93.72ZM41.82,128.58H45.9v28.58H41.82Zm57.16,0h4.08v28.58H99Zm49,28.58V128.58h4.08v28.58Zm9.35-55.93a5,5,0,0,1-3.33,2.63,26.55,26.55,0,0,0-12-13,22.42,22.42,0,0,0,5.17-9.23,7.55,7.55,0,0,0,.83,0,8.15,8.15,0,0,0,2.09-.27c.22,6.39,1.4,15.11,7.93,18A7.4,7.4,0,0,1,157.32,101.23Z"/><circle class="cls-1" cx="60.19" cy="75.5" r="2.04"/><circle class="cls-1" cx="76.52" cy="75.5" r="2.04"/><circle class="cls-1" cx="117.35" cy="75.5" r="2.04"/><circle class="cls-1" cx="133.68" cy="75.5" r="2.04"/><path class="cls-1" d="M60.79,82.23a2,2,0,0,0,0,2.88h0a10.85,10.85,0,0,0,7.57,2.64h0a10.85,10.85,0,0,0,7.57-2.64A2,2,0,1,0,73,82.23a7.18,7.18,0,0,1-4.68,1.44,7.18,7.18,0,0,1-4.68-1.44,2,2,0,0,0-2.89,0Z"/><path class="cls-1" d="M130.2,82.23a8.32,8.32,0,0,1-9.36,0A2,2,0,0,0,118,85.11a10.85,10.85,0,0,0,7.57,2.64h0a10.81,10.81,0,0,0,7.56-2.64,2,2,0,0,0-2.88-2.88Z"/></svg>