<svg id="Layer_1" data-name="Layer 1" xmlns="http://www.w3.org/2000/svg" viewBox="0 0 200 200"><defs><style>.cls-1{fill:#fff;stroke:#1d1d1b;stroke-miterlimit:10;}.cls-2{fill:#230a70;}</style></defs><rect class="cls-1" x="-763.24" y="-225.67" width="1254.41" height="578.15"/><circle class="cls-2" cx="100" cy="100" r="100"/><path class="cls-1" d="M60.2,65.65c7.2,51.29,50,48.32,68.67,52.56a2.14,2.14,0,0,0,2.54-1.69,1.93,1.93,0,0,0-1.27-2.34A24.85,24.85,0,0,1,118.06,104c42.17-10.38,30.09-40.69,39.21-59.13a2,2,0,0,0-1.7-3h0c-21-5.29-38.15,3.61-43.45,26.92-7-30.73-25.85-40.27-56.37-35.18a2.11,2.11,0,0,0-1.91,3C56,41.28,58.29,51.88,60.2,65.65ZM152.39,45.3c-7.63,22,1.27,45.78-36.24,54.9-.21-.43-.21-.64-.42-1.06,7.63-6.36,8.47-13.78,9.75-16.75h7.62a2.12,2.12,0,1,0,0-4.23H128A45.89,45.89,0,0,1,135.44,71a2.12,2.12,0,1,0-2.55-3.39,54.68,54.68,0,0,0-8,7.84l-1.06-3.6a2.08,2.08,0,1,0-4,1.06l2.12,7c-2.12,4.24-1.69,8.69-7.42,14.2C110.85,66.07,122.93,39.37,152.39,45.3ZM110.22,91.08a29.14,29.14,0,0,0,5.93,17.38c-14.84-9.11-14-18-17.8-25.22l2.75-10.17a2.08,2.08,0,1,0-4-1.06l-1.7,6.36c-3.18-4.24-6.57-7-10.81-10.81a2.1,2.1,0,1,0-2.75,3.18c4,3.6,7.63,6.57,10.59,10.59l-8.47.43a2.12,2.12,0,0,0-2.12,2.12A2.28,2.28,0,0,0,83.94,86c.84,0-3.18.21,10.8-.43,3.18,6.57,2.76,15.9,18,25.86C94.11,108.89,69.52,101.68,64.44,65c-1.06-7.42-3-20.14-5.73-27.56C88,31.53,109.37,45.52,110.22,91.08Z"/><path class="cls-1" d="M139.46,125.63l-18,10.81a8.94,8.94,0,0,0-8.06-6.15c-15.89-.42-22.46-5.51-22.46-5.51-8.27-7.84-19.08-9.54-28.19-4.66L43.67,130.29a2.18,2.18,0,0,0,2.12,3.82l19.07-10.18c7.42-4,16.32-2.54,23.31,4.24.22.21,7.63,5.94,25.22,6.57a4.25,4.25,0,0,1,4.24,4.24,4.33,4.33,0,0,1-3.81,4.24c-7.84.85-22.25,1.27-31.37-4.45a2.14,2.14,0,1,0-2.33,3.6c9.11,5.72,23.31,6.15,33.91,5.09a8.47,8.47,0,0,0,7.21-5.94l20.34-12.08a8.1,8.1,0,0,1,11,2.34,1.29,1.29,0,0,1-.21,1.69l-44.72,28.4a8.44,8.44,0,0,1-8,.64l-28-12.3a8.37,8.37,0,0,0-8,.64l-8.05,4.87a2.15,2.15,0,1,0,2.33,3.61l7.84-4.88a4,4,0,0,1,4-.21l28,12.29a12.83,12.83,0,0,0,12.08-.84C146,140,162.14,137.5,156.21,129.23A12.46,12.46,0,0,0,139.46,125.63Z"/></svg>