<?xml version="1.0" encoding="utf-8"?>
<!-- Generator: Adobe Illustrator 24.0.3, SVG Export Plug-In . SVG Version: 6.00 Build 0)  -->
<svg version="1.1" id="Layer_1" xmlns="http://www.w3.org/2000/svg" xmlns:xlink="http://www.w3.org/1999/xlink" x="0px" y="0px"
	 viewBox="0 0 256 256" style="enable-background:new 0 0 256 256;" xml:space="preserve">
<style type="text/css">
	.st0{fill:#F6F6F6;}
	.st1{fill:#131D6E;}
</style>
<g>
	<g>
		<circle class="st0" cx="128" cy="128" r="117.27"/>
	</g>
	<g>
		<path id="XMLID_52_" class="st1" d="M126.04,126.89c3.54,1.28,6.91,2.51,10.29,3.73c5.75,2.08,11.5,4.17,17.24,6.25
			c4.6,1.67,7.65,4.66,8.02,9.77c0.23,3.21-0.72,6.15-2.64,8.71c-10.79,14.42-21.59,28.82-32.42,43.21
			c-2.22,2.94-5.12,4.79-8.96,4.39c-5.37-0.56-8.7-5.46-7.23-10.66c0.43-1.53,1.2-3.03,2.09-4.36
			c7.15-10.73,14.36-21.42,21.56-32.12c0.25-0.38,0.49-0.76,0.8-1.25c-3.75-1.05-7.36-2.06-10.97-3.07
			c-7.83-2.19-15.66-4.34-23.48-6.56c-5.31-1.51-8.96-4.7-9.87-10.37c-0.61-3.83,0.21-7.47,1.96-10.91
			c5.62-11.04,11.24-22.08,16.85-33.12c0.22-0.44,0.44-0.88,0.75-1.49c-2.63-0.35-5.1-0.69-7.57-1.02
			c-5.6-0.73-11.21-1.48-16.82-2.16c-0.68-0.08-1.46,0.06-2.1,0.34c-8.43,3.7-16.85,7.44-25.27,11.18
			c-1.95,0.87-3.94,1.38-6.09,0.93c-5.1-1.08-7.33-6.83-4.14-10.95c0.87-1.13,2.08-2.12,3.34-2.8c9.62-5.16,19.28-10.23,28.94-15.32
			c2.36-1.24,4.9-1.31,7.48-1.12c12.78,0.92,25.57,1.86,38.35,2.75c4.61,0.32,9.2,0.62,13.43,2.76c3.01,1.52,5.71,3.44,7.86,6.04
			c4.94,5.97,5.42,13.22,0.99,19.65c-2.5,3.62-5.45,6.93-8.25,10.35c-4.37,5.33-8.77,10.64-13.16,15.95
			C126.74,125.99,126.46,126.36,126.04,126.89z"/>
		<path id="XMLID_50_" class="st1" d="M108.62,152.32c-0.21,0.41-0.31,0.82-0.41,1.13c-3.59,9.24-7.29,18.48-10.88,27.83
			c-1.13,2.87-2.88,5.13-5.13,7.19c-6.26,5.55-12.32,11.3-18.48,17.05c-5.75,5.24-11.5,10.58-17.15,15.92
			c-5.34-2.88-10.37-6.26-15.09-9.96c0.21-0.31,0.51-0.62,0.82-0.92c10.78-11.29,21.66-22.38,32.55-33.68
			c0.62-0.62,1.13-1.44,1.33-2.16c3.49-11.3,6.88-22.59,10.27-33.88c1.23,1.54,2.26,3.08,3.49,4.42c1.95,1.85,4.31,2.98,6.88,3.7
			c3.49,1.03,7.08,2.05,10.57,2.98C107.8,152.01,108.11,152.22,108.62,152.32z"/>
		<path id="XMLID_45_" class="st1" d="M156.86,73.75c-10.72-0.01-19.4-8.74-19.4-19.49c0.01-10.75,8.7-19.43,19.45-19.43
			c10.8,0,19.48,8.72,19.46,19.54C176.35,65.09,167.61,73.76,156.86,73.75z"/>
		<path id="XMLID_18_" class="st1" d="M148.42,106.73c4.89-5.43,8.28-11.35,7.41-19.28c5.27,5.1,10.28,9.95,15.32,14.84
			c4.86-2.94,9.66-5.84,14.45-8.75c2.55-1.54,5.09-3.1,7.65-4.62c1.87-1.11,3.87-1.76,6.09-1.4c4.86,0.79,7.43,5.88,4.99,10.16
			c-0.76,1.33-1.93,2.55-3.19,3.45c-8.85,6.32-17.77,12.55-26.68,18.79c-2.96,2.07-6.08,2.05-9.24,0.53
			c-0.93-0.45-1.82-1.04-2.62-1.71c-4.58-3.82-9.12-7.68-13.68-11.53C148.79,107.08,148.65,106.94,148.42,106.73z"/>
	</g>
</g>
</svg>
