<?xml version="1.0" encoding="utf-8"?>
<!-- Generator: Adobe Illustrator 24.0.3, SVG Export Plug-In . SVG Version: 6.00 Build 0)  -->
<svg version="1.1" id="Layer_1" xmlns="http://www.w3.org/2000/svg" xmlns:xlink="http://www.w3.org/1999/xlink" x="0px" y="0px"
	 viewBox="0 0 256 256" style="enable-background:new 0 0 256 256;" xml:space="preserve">
<style type="text/css">
	.st0{fill:#F6F6F6;}
	.st1{fill:#131D6E;}
</style>
<g>
	<g>
		<g>
			<g>
				<circle class="st0" cx="128" cy="128" r="118.84"/>
			</g>
		</g>
	</g>
	<path class="st1" d="M198.2,166.74c0.16-0.89,0.26-1.8,0.26-2.73c0-0.7-0.06-1.39-0.16-2.06c6.69-35.66-20.43-75.9-27.44-106.61
		c-2.76-8.54-25.99-18.81-30.7-16.9c-4.27,1.73-12.93,13.63-10.29,17.22c0.41,0.56,0.98,1.07,1.67,1.53
		c-0.21,0.37-0.39,0.76-0.5,1.2c-0.55,2.22,0.6,4.43,2.58,4.92l13.33,3.33c1.24,0.69,2.72,0.72,3.86-0.07l7.1-4.89
		c-2.8,9.2-9.41,50.27,1.64,84.59l0.01,0.02c-6.71-6.14-16.77-10.05-28.03-10.05c-10.02,0-19.09,3.1-25.7,8.11
		c-5.66-5.75-13.68-9.36-22.6-9.36c-17.15,0-31.05,13.28-31.05,29.65c0,16.38,13.9,29.65,31.05,29.65c5.73,0,11.07-1.51,15.68-4.09
		c9.55,1.33,19.83,2.16,29.64,2.16c0.79,0,1.58-0.01,2.37-0.02c0.21,0,0.41,0.02,0.61,0.02c1.31,0,2.6-0.06,3.88-0.16
		c26.06-1.17,49.53-8.66,54.69-14.42c0.09-0.05,0.17-0.1,0.26-0.15c0.97,0.72,2.12,1.15,3.36,1.15c3.43,0,6.21-3.19,6.21-7.13
		C199.93,169.75,199.27,168.02,198.2,166.74z"/>
</g>
</svg>
