<svg id="Layer_1" data-name="Layer 1" xmlns="http://www.w3.org/2000/svg" viewBox="0 0 200 200"><defs><style>.cls-1{fill:#fff;stroke:#1d1d1b;stroke-miterlimit:10;}.cls-2{fill:#230a70;}</style></defs><rect class="cls-1" x="-983.24" y="-225.67" width="1254.41" height="578.15"/><circle class="cls-2" cx="100" cy="100" r="100"/><path class="cls-1" d="M79,135.73a6.31,6.31,0,1,0,6.31,6.3A6.31,6.31,0,0,0,79,135.73Zm0,8.4a2.1,2.1,0,1,1,2.11-2.1A2.11,2.11,0,0,1,79,144.13Z"/><path class="cls-1" d="M100,118.91a6.31,6.31,0,1,0,6.3,6.31A6.31,6.31,0,0,0,100,118.91Zm0,8.41a2.1,2.1,0,1,1,2.1-2.1A2.1,2.1,0,0,1,100,127.32Z"/><path class="cls-1" d="M55.87,123.12a6.31,6.31,0,1,0-6.31,6.3A6.32,6.32,0,0,0,55.87,123.12Zm-8.41,0a2.1,2.1,0,1,1,2.1,2.1A2.1,2.1,0,0,1,47.46,123.12Z"/><path class="cls-1" d="M150.44,129.42h-5a129.77,129.77,0,0,0,7-36.36c5-2.18,12.69-8.07,12.69-18.28,0-33-39.3-37.77-39.7-37.82l-2.86-.31.57,2.82c2.36,11.82,1.32,15.1,0,19.25a39.83,39.83,0,0,0-2.13,14c0,17.75,18.65,20.6,27.2,21-.16,3.38-.53,7.39-1.16,11.75A14.73,14.73,0,0,0,135.73,100H125.22v2.1a14.73,14.73,0,0,0,14.71,14.71h5a98.22,98.22,0,0,1-5,15.51v-.8a14.73,14.73,0,0,0-14.71-14.71h-2.1v10.51A14.73,14.73,0,0,0,135,141.75c-5.39,8.32-12.78,14.3-22.79,14.91a6.31,6.31,0,0,0-5.9-4.12h-2.84A30.92,30.92,0,0,0,111,105.08a42.63,42.63,0,0,1-11-28.59V66.37c0-3.78-3.71-6.93-10.21-8.81l3.72-14.88a6.32,6.32,0,0,0-.71-4.77A6.23,6.23,0,0,0,88.91,35a6,6,0,0,0-1.52-.19,6.31,6.31,0,0,0-6.12,4.78L77.21,55.87h-.33c-11.21,0-23.12,3.69-23.12,10.51V76.49a42.67,42.67,0,0,1-11,28.58,30.92,30.92,0,0,0,7.5,47.47H47.46a6.31,6.31,0,1,0,0,12.61H106.3a6.3,6.3,0,0,0,6-4.29,29.4,29.4,0,0,0,17.6-7,14.72,14.72,0,0,0,14.28,11.27h10.51v-2.1a14.73,14.73,0,0,0-14.71-14.71h-4.66a56.65,56.65,0,0,0,6.35-10,14.8,14.8,0,0,0,13,7.92h10.51v-2.11A14.73,14.73,0,0,0,150.44,129.42Zm-23.12-2.1v-6.09a10.52,10.52,0,0,1,8.41,10.29v6.1A10.53,10.53,0,0,1,127.32,127.32Zm-2.1-54.64A35.48,35.48,0,0,1,127.16,60c1.33-4.17,2.49-7.83.68-18.38,8.5,1.72,33.11,8.8,33.11,33.16,0,7.55-5.14,11.67-8.46,13.55,0-1,0-2-.13-2.89l4.33-18.59-4.09-.95-2.23,9.55A49.2,49.2,0,0,0,137.1,54.27l-2.74,3.19a45.61,45.61,0,0,1,10.91,16.25l-12.72-7.07-2.05,3.67,16.64,9.24a42.22,42.22,0,0,1,1.19,9.9C140,89.12,125.22,86.58,125.22,72.68Zm14.71,39.93a10.52,10.52,0,0,1-10.29-8.41h6.09a10.52,10.52,0,0,1,10.17,8c0,.14-.05.28-.08.42Zm-25.22,13.18A26.78,26.78,0,0,1,88,152.54H66l10.52-42.06c4.86,2.35,9.86,4.23,15,4.23,4,0,14.07-1,17.63-5.14A26.68,26.68,0,0,1,114.71,125.79ZM76.88,76.88c1.26,0,2.52,0,3.78-.14l-6.91,27.62-.66-.35-3.17-1.64,6.37-25.5Zm-5.74,30.86,1.57.81L61.79,152.21a26.81,26.81,0,0,1-4.1-.94l11.18-44.71Zm35.16-1.44c0,1.58-7.12,4.21-14.71,4.21-4.2,0-8.53-1.59-12.82-3.62,3.54-2.7,6.5-4.79,12.82-4.79C99.18,102.1,106.3,104.72,106.3,106.3Zm-4.59-7.1a44.54,44.54,0,0,0-10.12-1.3,21.42,21.42,0,0,0-12.84,3.8l6.37-25.49A29.74,29.74,0,0,0,95.8,72.59v3.9A46.74,46.74,0,0,0,101.71,99.2ZM95.8,66.37c0,1.78-3.55,4.12-9.56,5.39l2.53-10.13C93.39,63,95.8,65,95.8,66.37ZM85.35,40.65a2.14,2.14,0,0,1,2.54-1.54,2.11,2.11,0,0,1,1.54,2.55l-7.7,30.78c-1.38.13-2.84.21-4.39.23ZM76.16,60.08,73.05,72.53C63.73,71.82,58,68.65,58,66.37,58,63.85,65,60.24,76.16,60.08ZM58,76.49v-3.9c3.44,2.17,8.61,3.54,14,4l-6,23.88A25.61,25.61,0,0,0,55.87,97.9a18.57,18.57,0,0,0-3.29.34A46.81,46.81,0,0,0,58,76.49Zm-18.92,49.3a26.7,26.7,0,0,1,6.87-17.9,46.88,46.88,0,0,0,3.45-4.39,19,19,0,0,1,6.5-1.4c2.79,0,5.88,1.06,9.14,2.56l-11.24,45A26.77,26.77,0,0,1,39.05,125.79ZM106.3,161H47.46a2.11,2.11,0,0,1,0-4.21H106.3a2.11,2.11,0,1,1,0,4.21Zm43.93,0h-6.1a10.52,10.52,0,0,1-10.29-8.41h6.09A10.53,10.53,0,0,1,150.23,161ZM154.64,142a10.56,10.56,0,0,1-10.29-8.4h6.09a10.53,10.53,0,0,1,10.3,8.4Z"/></svg>